# xmcd
#
# Track frame offsets: 
#        150
#        20597
#        41075
#        63257
#        82605
#        105042
#        128087
#        148127
#        172075
#        196360
#        219905
#        238035
#        260072
#        280022
#        305305
#
# Disc length: 4292 seconds
#
# Revision: 5
# Processed by: cddbd v1.5.2PL0 Copyright (c) Steve Scherf et al.
# Submitted via: ExactAudioCopy v0.95a5
#
DISCID=ca10c20f
DTITLE=After 7 - k-The Very Best Of After 7
DYEAR=1997
DGENRE=R&B
TTITLE0=Sara Smile
TTITLE1=Ready Or Not
TTITLE2=Can't Stop (Remix)
TTITLE3=Heat Of The Moment (Remix)
TTITLE4=One Night
TTITLE5=Baby I'm For Real (Natural High)
TTITLE6=Not Enough Hours In The Night
TTITLE7=Can He Love U Like This
TTITLE8=Takin' My Time
TTITLE9=Gonne Love You Right (A Cappella Remix)
TTITLE10=Nights Like This
TTITLE11=`Til You Do Me Right
TTITLE12=I Like It Like That
TTITLE13=G.S.T. (Herbert Baby Doll Dub)
TTITLE14=Honey (Oh How I Need You)
EXTD=YEAR: 1997
EXTT0=
EXTT1=
EXTT2=
EXTT3=
EXTT4=
EXTT5=
EXTT6=
EXTT7=
EXTT8=
EXTT9=
EXTT10=
EXTT11=
EXTT12=
EXTT13=
EXTT14=
PLAYORDER=
